<?xml version="1.0" encoding="utf-8"?>
<!-- Generator: Adobe Illustrator 17.0.0, SVG Export Plug-In . SVG Version: 6.00 Build 0)  -->
<!DOCTYPE svg PUBLIC "-//W3C//DTD SVG 1.1//EN" "http://www.w3.org/Graphics/SVG/1.1/DTD/svg11.dtd">
<svg version="1.1" id="Layer_1" xmlns="http://www.w3.org/2000/svg" xmlns:xlink="http://www.w3.org/1999/xlink" x="0px" y="0px"
	 width="130.364px" height="129.636px" viewBox="0 0 130.364 129.636" enable-background="new 0 0 130.364 129.636"
	 xml:space="preserve">
<g>
	<defs>
		<polygon id="SVGID_1_" points="62.006,2.021 61.28,2.149 60.536,1.959 59.809,2.064 59.102,2.377 58.36,2.291 57.642,2.451 
			56.913,2.506 56.168,2.457 55.472,2.752 54.737,2.785 54.021,2.93 53.328,3.204 52.552,3.043 51.872,3.364 51.172,3.585 
			50.424,3.594 49.736,3.856 48.998,3.923 48.367,4.39 47.634,4.476 46.909,4.602 46.195,4.767 45.543,5.128 44.827,5.291 
			44.185,5.665 43.455,5.791 42.782,6.077 42.104,6.349 41.46,6.701 40.79,6.99 40.006,7.014 39.375,7.397 38.792,7.878 
			38.085,8.087 37.422,8.393 36.788,8.756 36.158,9.126 35.482,9.409 34.878,9.825 34.126,9.975 33.459,10.284 32.869,10.726 
			32.37,11.312 31.709,11.629 30.948,11.794 30.344,12.208 29.844,12.777 29.181,13.102 28.679,13.657 27.959,13.909 27.48,14.491 
			26.745,14.731 26.187,15.206 25.754,15.837 25.118,16.213 24.553,16.677 24.07,17.237 23.358,17.533 22.862,18.077 22.396,18.651 
			21.852,19.138 21.386,19.708 20.765,20.118 20.153,20.541 19.807,21.226 19.379,21.826 18.781,22.266 18.231,22.753 17.91,23.445 
			17.36,23.934 16.865,24.471 16.39,25.026 15.841,25.522 15.588,26.254 15.15,26.836 14.53,27.283 14.253,27.986 13.725,28.506 
			13.338,29.126 12.813,29.652 12.53,30.342 12.031,30.89 11.564,31.459 11.32,32.169 11.054,32.86 10.507,33.386 10.154,34.027 
			9.735,34.631 9.366,35.264 9.035,35.917 8.93,36.685 8.534,37.302 8.322,38.011 7.749,38.55 7.424,39.206 7.365,39.979 
			6.863,40.559 6.763,41.309 6.416,41.957 6.243,42.673 5.801,43.29 5.539,43.974 5.273,44.657 5.262,45.424 4.836,46.056 
			4.6,46.75 4.592,47.51 4.529,48.251 4.093,48.891 3.969,49.614 3.805,50.326 3.516,51.011 3.692,51.797 3.395,52.481 3.13,53.175 
			3.273,53.942 3.132,54.658 2.684,55.327 2.823,56.087 2.604,56.795 2.727,57.546 2.334,58.238 2.378,58.978 2.259,59.701 
			2.45,60.448 2.222,61.166 2.071,61.891 2.368,62.635 2.179,63.359 2.249,64.091 2.214,64.821 2,65.553 2.058,66.285 2.005,67.019 
			2.397,67.735 2.399,68.465 2.16,69.213 2.273,69.938 2.505,70.652 2.654,71.37 2.742,72.094 2.725,72.831 2.909,73.542 
			2.819,74.293 2.804,75.037 3.165,75.717 3.346,76.426 3.245,77.19 3.465,77.891 3.834,78.558 3.913,79.289 3.858,80.054 
			4.163,80.732 4.203,81.479 4.678,82.105 4.951,82.785 4.899,83.564 5.118,84.263 5.465,84.918 5.731,85.598 5.895,86.315 
			6.003,87.056 6.421,87.68 6.551,88.416 7.096,88.983 7.389,89.65 7.57,90.368 7.809,91.063 8.197,91.688 8.464,92.371 
			8.737,93.052 9.009,93.735 9.623,94.238 9.943,94.894 10.167,95.605 10.58,96.21 11.016,96.801 11.301,97.482 11.691,98.099 
			12.009,98.763 12.49,99.322 12.994,99.864 13.236,100.584 13.681,101.164 14.193,101.696 14.485,102.388 15.106,102.836 
			15.519,103.438 15.757,104.183 16.485,104.534 16.693,105.311 17.334,105.726 17.676,106.398 18.211,106.902 18.874,107.286 
			19.226,107.956 19.869,108.353 20.303,108.948 20.701,109.584 21.408,109.906 21.767,110.589 22.286,111.105 23.011,111.395 
			23.424,112.029 23.922,112.571 24.656,112.838 25.177,113.351 25.777,113.77 26.345,114.227 26.934,114.658 27.52,115.092 
			28.074,115.57 28.706,115.942 29.109,116.639 29.844,116.859 30.52,117.161 30.984,117.786 31.719,117.992 32.19,118.621 
			32.895,118.867 33.465,119.343 34.087,119.73 34.763,120.022 35.406,120.37 36.081,120.658 36.717,121.02 37.469,121.148 
			37.977,121.778 38.692,121.977 39.417,122.147 40.081,122.45 40.794,122.638 41.388,123.113 42.024,123.493 42.701,123.774 
			43.493,123.742 44.162,124.037 44.785,124.473 45.542,124.512 46.265,124.646 46.887,125.113 47.617,125.219 48.292,125.522 
			48.984,125.769 49.773,125.635 50.403,126.137 51.126,126.263 51.843,126.411 52.57,126.509 53.337,126.391 54.052,126.53 
			54.745,126.811 55.488,126.785 56.212,126.876 56.915,127.116 57.655,127.076 58.378,127.179 59.108,127.208 59.814,127.512 
			60.54,127.62 61.272,127.64 62.001,127.731 62.736,127.688 63.473,127.463 64.198,127.775 64.931,127.494 65.663,127.777 
			66.397,127.818 67.118,127.469 67.85,127.519 68.576,127.422 69.313,127.502 70.032,127.325 70.78,127.495 71.487,127.22 
			72.241,127.382 72.963,127.256 73.696,127.211 74.388,126.886 75.144,126.981 75.835,126.684 76.539,126.471 77.256,126.34 
			78.002,126.342 78.708,126.142 79.451,126.112 80.138,125.836 80.848,125.662 81.556,125.481 82.213,125.115 82.931,124.97 
			83.674,124.9 84.317,124.51 85.083,124.5 85.735,124.145 86.386,123.795 87.037,123.455 87.832,123.485 88.481,123.137 
			89.157,122.857 89.754,122.395 90.448,122.16 91.103,121.838 91.77,121.541 92.406,121.181 93.103,120.945 93.779,120.662 
			94.36,120.196 95.081,119.994 95.664,119.539 96.368,119.299 96.949,118.844 97.609,118.524 98.256,118.179 98.812,117.69 
			99.411,117.272 100.114,117.009 100.616,116.446 101.218,116.033 101.882,115.705 102.41,115.19 102.988,114.743 103.617,114.362 
			104.074,113.763 104.611,113.267 105.276,112.926 105.738,112.343 106.276,111.851 107.07,111.642 107.526,111.057 
			107.964,110.456 108.485,109.945 109.18,109.609 109.693,109.086 110.08,108.442 110.56,107.89 111.162,107.451 111.626,106.884 
			112.157,106.377 112.56,105.758 113.095,105.253 113.353,104.518 113.908,104.029 114.507,103.571 114.777,102.856 
			115.295,102.332 115.767,101.772 116.217,101.194 116.588,100.561 117.09,100.018 117.384,99.335 117.922,98.812 118.097,98.057 
			118.41,97.393 118.84,96.801 119.184,96.157 119.703,95.612 119.931,94.904 120.53,94.397 120.823,93.722 121.208,93.097 
			121.526,92.436 121.826,91.768 122.114,91.093 122.128,90.298 122.706,89.753 122.837,89.015 122.99,88.288 123.387,87.662 
			123.794,87.034 123.84,86.272 124.163,85.612 124.336,84.899 124.646,84.232 124.857,83.533 125.215,82.877 125.404,82.169 
			125.495,81.435 125.51,80.683 125.865,80.021 125.909,79.28 126.13,78.582 126.303,77.873 126.401,77.147 126.557,76.434 
			126.736,75.724 127.04,75.034 127.046,74.293 127.152,73.57 127.176,72.836 127.398,72.126 127.412,71.392 127.499,70.664 
			127.415,69.924 127.657,69.209 127.462,68.465 127.766,67.748 127.605,67.01 127.627,66.28 127.845,65.553 127.537,64.821 
			127.596,64.091 127.611,63.36 127.809,62.623 127.697,61.895 127.651,61.165 127.519,60.44 127.528,59.707 127.57,58.969 
			127.463,58.243 127.438,57.51 127.125,56.812 127.241,56.058 126.853,55.376 126.764,54.652 126.91,53.887 126.447,53.227 
			126.578,52.458 126.446,51.738 126.12,51.061 126.161,50.302 125.69,49.664 125.503,48.959 125.649,48.164 125.161,47.542 
			125.231,46.759 125.048,46.049 124.59,45.427 124.526,44.679 124.041,44.073 124.022,43.304 123.744,42.627 123.381,41.983 
			123.145,41.291 122.74,40.668 122.653,39.911 122.348,39.247 121.832,38.678 121.562,38.001 121.318,37.309 120.295,37.166 
			119.984,36.501 119.655,35.846 119.241,35.238 119.538,34.123 119.17,33.494 119.014,32.739 118.694,32.077 118.323,31.445 
			117.934,30.824 117.263,30.388 116.965,29.71 116.709,29 116.151,28.497 115.86,27.805 115.243,27.35 115.001,26.617 
			114.439,26.127 114.057,25.494 113.501,25.005 112.957,24.506 112.472,23.961 111.939,23.459 111.521,22.854 111.174,22.181 
			110.583,21.733 109.982,21.298 109.567,20.683 108.966,20.252 108.574,19.609 108.033,19.117 107.513,18.601 106.956,18.128 
			106.504,17.536 105.838,17.186 105.39,16.583 104.828,16.114 104.136,15.806 103.615,15.286 103.006,14.879 102.47,14.376 
			101.917,13.892 101.23,13.595 100.731,13.032 100.023,12.771 99.471,12.281 98.819,11.943 98.303,11.392 97.684,10.998 
			97.051,10.629 96.381,10.323 95.696,10.048 95.008,9.784 94.334,9.498 93.687,9.161 93.087,8.731 92.483,8.306 91.83,7.977 
			91.193,7.61 90.431,7.52 89.766,7.22 89.201,6.681 88.506,6.444 87.723,6.436 87.111,5.994 86.452,5.669 85.699,5.603 
			85.096,5.107 84.31,5.152 83.592,5.004 82.964,4.562 82.233,4.456 81.592,4.035 80.855,3.952 80.144,3.78 79.449,3.542 
			78.713,3.472 78.001,3.303 77.301,3.074 76.553,3.092 75.857,2.832 75.105,2.892 74.392,2.723 73.655,2.724 72.938,2.582 
			72.225,2.394 71.484,2.456 70.753,2.44 70.03,2.33 69.304,2.261 68.584,2.071 67.849,2.124 67.123,2.013 66.393,1.945 
			65.661,2.088 64.931,2.099 64.199,1.961 63.472,2.153 62.732,1.847 		"/>
	</defs>
	<clipPath id="SVGID_2_">
		<use xlink:href="#SVGID_1_"  overflow="visible"/>
	</clipPath>
	<rect x="0.667" clip-path="url(#SVGID_2_)" fill="#DB1F26" width="128.667" height="128.833"/>
</g>
<g>
	<defs>
		<rect id="SVGID_3_" x="2" y="1.847" width="126.568" height="125.971"/>
	</defs>
	<clipPath id="SVGID_4_">
		<use xlink:href="#SVGID_3_"  overflow="visible"/>
	</clipPath>
	<path clip-path="url(#SVGID_4_)" fill="#FFFFFF" d="M79.129,58.424c-0.012,0.688-0.083,1.428-0.191,2.221
		c-0.061,0.423-0.13,0.86-0.209,1.305c-0.055,0.372-0.121,0.752-0.192,1.142c-0.137,0.77-0.277,1.509-0.445,2.206
		c-0.114,0.502-0.247,0.975-0.393,1.433c-0.118,0.413-0.241,0.813-0.378,1.19c-0.255,0.705-0.545,1.357-0.898,1.95
		c-0.346,0.581-0.754,1.103-1.236,1.553c-0.265,0.251-0.544,0.47-0.83,0.66c-0.29,0.194-0.592,0.356-0.907,0.49
		c-0.316,0.127-0.642,0.231-0.99,0.3c-0.342,0.065-0.707,0.102-1.08,0.113c-0.381,0.003-0.739-0.025-1.063-0.085
		c-0.321-0.062-0.618-0.152-0.893-0.275c-0.268-0.127-0.512-0.28-0.73-0.467c-0.226-0.185-0.42-0.402-0.601-0.642
		c-0.293-0.442-0.494-0.962-0.613-1.542c-0.12-0.588-0.16-1.239-0.142-1.946c0.021-0.706,0.095-1.473,0.213-2.273
		c0.116-0.804,0.27-1.654,0.446-2.528c0.167-0.89,0.345-1.731,0.535-2.527c0.197-0.795,0.414-1.551,0.671-2.242
		c0.256-0.698,0.555-1.333,0.911-1.907c0.355-0.575,0.764-1.084,1.253-1.523c0.266-0.241,0.534-0.455,0.817-0.639
		c0.279-0.181,0.571-0.338,0.873-0.461c0.304-0.12,0.625-0.215,0.96-0.275c0.341-0.064,0.694-0.091,1.071-0.094
		c0.372,0.003,0.719,0.03,1.044,0.094c0.322,0.06,0.619,0.153,0.893,0.28c0.268,0.118,0.52,0.273,0.742,0.453
		c0.22,0.185,0.418,0.391,0.59,0.635c0.3,0.437,0.499,0.944,0.62,1.512C79.102,57.101,79.147,57.737,79.129,58.424 M85.774,53.877
		c-0.297-0.783-0.704-1.507-1.242-2.2c-0.36-0.477-0.798-0.937-1.316-1.364c-0.524-0.43-1.129-0.828-1.823-1.16
		c-0.696-0.329-1.478-0.609-2.362-0.804c-0.88-0.197-1.858-0.308-2.94-0.315c-1.087-0.012-2.106,0.085-3.063,0.27
		c-0.955,0.178-1.842,0.449-2.662,0.768c-0.816,0.331-1.568,0.712-2.255,1.139c-0.687,0.423-1.302,0.888-1.851,1.364
		c-0.803,0.698-1.485,1.431-2.083,2.217c-0.596,0.793-1.096,1.645-1.533,2.576c-0.431,0.935-0.794,1.95-1.116,3.075
		c-0.316,1.118-0.597,2.344-0.85,3.702c-0.248,1.371-0.431,2.605-0.535,3.747c-0.104,1.133-0.12,2.164-0.041,3.12
		c0.084,0.944,0.259,1.811,0.557,2.619c0.304,0.814,0.715,1.556,1.265,2.268c0.379,0.488,0.829,0.961,1.362,1.399
		c0.532,0.44,1.155,0.834,1.865,1.166c0.709,0.334,1.515,0.604,2.423,0.786c0.9,0.187,1.905,0.282,3.019,0.261
		c1.11-0.011,2.153-0.138,3.125-0.341c0.971-0.216,1.868-0.502,2.702-0.854c0.827-0.349,1.587-0.762,2.273-1.206
		c0.686-0.449,1.3-0.927,1.849-1.421c0.787-0.712,1.459-1.464,2.036-2.27c0.573-0.804,1.056-1.658,1.469-2.598
		c0.41-0.938,0.751-1.953,1.048-3.07c0.291-1.118,0.541-2.337,0.765-3.68c0.229-1.331,0.397-2.533,0.483-3.637
		c0.087-1.101,0.094-2.102,0.003-3.019C86.257,55.497,86.075,54.661,85.774,53.877"/>
	<path clip-path="url(#SVGID_4_)" fill="#FFFFFF" d="M16.354,96.115c0.895-0.793,1.661-1.629,2.342-2.553
		c0.658-0.895,1.217-1.861,1.71-2.948c0.466-1.045,0.872-2.194,1.232-3.515c0.288-1.049,0.484-2.05,0.71-3.252l0.97-5.069
		l3.756-20.876l4.066,0.025l2.049-6.934l-4.971,0.014l0.467-3.296c0.017-0.084,0.089-0.501,0.17-0.957
		c0.096-0.555,0.205-1.188,0.229-1.288c0.196-0.854,0.402-1.569,0.636-2.193c0.245-0.695,0.538-1.304,0.897-1.865
		c0.378-0.587,0.8-1.071,1.292-1.487c0.268-0.233,0.557-0.443,0.854-0.628c0.31-0.187,0.615-0.335,0.928-0.455
		c0.023-0.008,0.045-0.015,0.067-0.021l0.057-0.017c0.424-0.173,0.831-0.293,1.248-0.377c0.474-0.096,0.966-0.145,1.467-0.145h0.046
		c0.479,0,0.938,0.047,1.36,0.134c0.405,0.086,0.786,0.213,1.132,0.373c0.049,0.025,0.094,0.05,0.139,0.076l0.096,0.055l2.271-7.299
		l-0.055-0.018c-0.346-0.103-0.707-0.213-1.096-0.292c-0.979-0.21-2.048-0.319-3.177-0.319L37.1,30.992
		c-1.143,0-2.28,0.109-3.379,0.331c-1.002,0.201-1.998,0.504-2.963,0.895c-0.889,0.367-1.732,0.804-2.508,1.301
		c-0.73,0.465-1.421,0.983-2.049,1.544c-0.874,0.772-1.625,1.59-2.298,2.501c-0.64,0.871-1.187,1.817-1.679,2.891
		c-0.307,0.685-0.588,1.433-0.857,2.279c-0.191,0.564-0.363,1.168-0.541,1.907c-0.22,0.886-0.439,2.14-0.632,3.246l-0.103,0.582
		c-0.044,0.251-0.083,0.49-0.118,0.737L19.624,51l-3.254,0.012l-2.042,6.904l4.152-0.007c-0.281,1.552-5.04,27.449-5.07,27.593
		c-0.196,0.866-0.409,1.599-0.643,2.24c-0.254,0.704-0.555,1.326-0.918,1.901c-0.019,0.031-0.042,0.06-0.062,0.091l-0.04,0.055
		c-0.749,1.227-2.1,2.315-3.352,2.886c1.078,2.158,2.402,4.185,3.711,6.194c0.7-0.319,1.526-0.773,2.157-1.179
		C14.996,97.222,15.701,96.693,16.354,96.115"/>
	<path clip-path="url(#SVGID_4_)" fill="#FFFFFF" d="M51.294,58.424c-0.012,0.688-0.082,1.432-0.197,2.221
		c-0.055,0.428-0.126,0.864-0.204,1.317c-0.057,0.365-0.121,0.742-0.191,1.133c-0.136,0.767-0.28,1.506-0.445,2.203
		c-0.112,0.496-0.246,0.963-0.39,1.418c-0.116,0.416-0.241,0.823-0.381,1.209c-0.256,0.703-0.549,1.353-0.899,1.946
		c-0.349,0.585-0.755,1.106-1.238,1.553c-0.261,0.251-0.541,0.47-0.831,0.66c-0.286,0.194-0.588,0.356-0.901,0.49
		c-0.317,0.127-0.649,0.233-0.991,0.302c-0.347,0.061-0.71,0.103-1.085,0.111c-0.379,0.003-0.734-0.023-1.058-0.085
		c-0.321-0.06-0.62-0.152-0.892-0.275c-0.271-0.127-0.519-0.28-0.735-0.467c-0.221-0.185-0.418-0.402-0.593-0.642
		c-0.3-0.442-0.497-0.962-0.62-1.542c-0.117-0.588-0.16-1.239-0.138-1.946c0.021-0.706,0.094-1.47,0.209-2.277
		c0.12-0.8,0.275-1.65,0.447-2.524c0.166-0.888,0.343-1.731,0.535-2.526c0.196-0.798,0.413-1.554,0.674-2.243
		c0.251-0.698,0.554-1.333,0.907-1.907c0.354-0.575,0.767-1.084,1.253-1.523c0.268-0.24,0.54-0.455,0.819-0.636
		c0.281-0.182,0.568-0.337,0.872-0.464c0.305-0.123,0.627-0.215,0.959-0.275c0.342-0.064,0.696-0.091,1.071-0.094
		c0.375,0.006,0.722,0.034,1.042,0.09c0.324,0.064,0.621,0.159,0.895,0.284c0.271,0.118,0.523,0.273,0.742,0.453
		c0.221,0.185,0.42,0.391,0.592,0.635c0.297,0.437,0.5,0.944,0.617,1.512C51.266,57.101,51.312,57.737,51.294,58.424 M57.941,53.877
		c-0.301-0.786-0.708-1.507-1.245-2.2c-0.361-0.477-0.797-0.937-1.319-1.364c-0.519-0.427-1.123-0.825-1.818-1.16
		c-0.696-0.329-1.48-0.608-2.367-0.804c-0.876-0.197-1.854-0.308-2.934-0.313c-1.089-0.014-2.11,0.083-3.066,0.264
		c-0.952,0.182-1.841,0.453-2.658,0.774c-0.822,0.329-1.575,0.71-2.259,1.137c-0.686,0.426-1.303,0.892-1.852,1.364
		c-0.803,0.698-1.487,1.428-2.082,2.217c-0.592,0.792-1.094,1.645-1.53,2.576c-0.43,0.935-0.793,1.949-1.113,3.075
		c-0.318,1.118-0.595,2.344-0.849,3.704c-0.252,1.369-0.435,2.603-0.537,3.745c-0.105,1.133-0.121,2.164-0.04,3.112
		c0.079,0.952,0.259,1.819,0.553,2.627c0.305,0.81,0.718,1.556,1.269,2.268c0.372,0.488,0.824,0.964,1.357,1.401
		c0.537,0.438,1.154,0.832,1.865,1.162c0.71,0.336,1.518,0.608,2.421,0.79c0.903,0.185,1.908,0.28,3.02,0.262
		c1.109-0.014,2.155-0.141,3.126-0.344c0.971-0.216,1.869-0.502,2.7-0.854c0.83-0.349,1.588-0.762,2.273-1.202
		c0.688-0.453,1.3-0.929,1.849-1.425c0.787-0.708,1.459-1.464,2.038-2.268c0.575-0.8,1.058-1.66,1.465-2.602
		c0.415-0.936,0.758-1.951,1.048-3.068c0.295-1.114,0.544-2.337,0.765-3.679c0.233-1.332,0.399-2.534,0.485-3.638
		c0.087-1.101,0.096-2.102,0.004-3.019C58.42,55.497,58.235,54.663,57.941,53.877"/>
	<path clip-path="url(#SVGID_4_)" fill="#FFFFFF" d="M106.744,58.396c-0.013,0.694-0.084,1.442-0.194,2.241
		c-0.06,0.427-0.128,0.868-0.207,1.319c-0.058,0.374-0.124,0.758-0.193,1.153c-0.139,0.775-0.284,1.523-0.451,2.231
		c-0.117,0.504-0.25,0.982-0.398,1.445c-0.117,0.417-0.245,0.818-0.382,1.202c-0.259,0.713-0.554,1.372-0.904,1.968
		c-0.354,0.588-0.763,1.117-1.252,1.57c-0.266,0.249-0.549,0.474-0.837,0.666c-0.293,0.198-0.598,0.361-0.915,0.495
		c-0.32,0.128-0.653,0.234-1,0.3c-0.345,0.071-0.712,0.106-1.091,0.116c-0.388,0.004-0.745-0.024-1.075-0.084
		c-0.325-0.064-0.624-0.155-0.901-0.282c-0.271-0.124-0.517-0.278-0.738-0.469c-0.229-0.187-0.424-0.405-0.605-0.652
		c-0.296-0.442-0.497-0.968-0.619-1.554c-0.12-0.593-0.163-1.249-0.142-1.964c0.022-0.712,0.094-1.486,0.214-2.295
		c0.116-0.814,0.274-1.674,0.447-2.556c0.172-0.895,0.349-1.748,0.542-2.55c0.2-0.804,0.419-1.567,0.676-2.265
		c0.261-0.705,0.562-1.346,0.92-1.928c0.359-0.579,0.774-1.097,1.268-1.535c0.265-0.246,0.537-0.464,0.822-0.648
		c0.284-0.183,0.581-0.34,0.887-0.465c0.304-0.123,0.629-0.218,0.965-0.278c0.347-0.064,0.703-0.092,1.082-0.094
		c0.379,0.002,0.728,0.03,1.054,0.094c0.325,0.06,0.627,0.155,0.904,0.282c0.272,0.12,0.526,0.278,0.748,0.458
		c0.221,0.187,0.422,0.397,0.597,0.642c0.302,0.44,0.504,0.951,0.624,1.528C106.718,57.056,106.761,57.7,106.744,58.396
		 M113.313,36.161c-0.389,0.407-0.743,0.848-1.067,1.331c-0.175,0.262-0.338,0.539-0.496,0.821
		c-0.074,0.127-0.136,0.241-0.191,0.346c-0.016,0.026-0.028,0.052-0.043,0.081c-0.086,0.167-0.147,0.294-0.186,0.377
		c-0.145,0.303-0.285,0.611-0.416,0.93c-0.385,0.933-0.719,1.951-1.029,3.025c-0.297,1.075-0.579,2.214-0.853,3.419
		c-0.278,1.181-0.532,2.334-0.733,3.428c-0.075,0.436-0.137,0.859-0.197,1.278c-0.321-0.486-0.674-0.914-1.065-1.278
		c-0.44-0.4-0.923-0.738-1.45-0.999c-0.534-0.271-1.113-0.47-1.738-0.613c-0.625-0.145-1.304-0.233-2.03-0.275
		c-0.704-0.043-1.402-0.018-2.088,0.063c-0.686,0.089-1.36,0.226-2.004,0.427c-0.646,0.197-1.261,0.444-1.843,0.744
		c-0.577,0.303-1.121,0.648-1.606,1.04c-0.881,0.694-1.615,1.54-2.228,2.478c-0.618,0.943-1.118,1.981-1.536,3.076
		c-0.42,1.094-0.758,2.243-1.053,3.398c-0.291,1.154-0.536,2.323-0.771,3.445c-0.236,1.132-0.474,2.304-0.667,3.475
		c-0.187,1.178-0.329,2.353-0.368,3.491c-0.031,1.137,0.034,2.235,0.255,3.24c0.219,1.013,0.601,1.939,1.19,2.732
		c0.322,0.433,0.722,0.837,1.181,1.188c0.462,0.356,0.981,0.673,1.556,0.934c0.568,0.261,1.193,0.465,1.848,0.617
		c0.657,0.151,1.346,0.239,2.063,0.266c0.78,0.023,1.504-0.005,2.195-0.099c0.689-0.093,1.346-0.259,1.975-0.488
		c0.635-0.235,1.248-0.547,1.854-0.934c0.337-0.215,0.674-0.459,1.014-0.727c0.115-0.091,0.229-0.187,0.344-0.283
		c0.003-0.002,0.007-0.005,0.009-0.009c0.111-0.092,0.216-0.185,0.323-0.286c0.042-0.037,0.084-0.07,0.129-0.112l0.023-0.032
		c0.215-0.21,0.428-0.423,0.632-0.659c0.466-0.533,0.851-1.093,1.171-1.654c0.261,0.903,0.647,1.731,1.21,2.443
		c0.349,0.436,0.774,0.837,1.258,1.188c0.321,0.23,0.672,0.432,1.04,0.623c0.095,0.054,0.183,0.118,0.281,0.171
		c0.525,0.271,1.098,0.477,1.722,0.624c0.631,0.151,1.318,0.239,2.064,0.268c0.21,0.005,0.413-0.004,0.618-0.008l1.985-6.363
		c-0.045-0.007-0.095-0.01-0.139-0.017c-0.271-0.06-0.521-0.141-0.752-0.254c-0.227-0.113-0.432-0.25-0.614-0.412
		c-0.185-0.159-0.346-0.346-0.493-0.557c-0.244-0.381-0.402-0.829-0.493-1.326c-0.069-0.381-0.085-0.798-0.079-1.237
		c-0.006-0.023-0.007-0.046-0.014-0.071c0,0,0.014-0.331,0.024-0.497c0.007-0.123,0.025-0.289,0.046-0.475
		c0.042-0.42,0.095-0.85,0.17-1.302c0.019-0.098,0.041-0.208,0.059-0.31c0.034-0.211,0.057-0.354,0.057-0.354l0.987-5.605
		c0.724-4.323,1.631-9.65,1.739-10.207c0.176-0.932,0.357-1.821,0.557-2.656c0.208-0.836,0.433-1.63,0.704-2.355
		c0.267-0.732,0.581-1.401,0.95-2.007c0.374-0.603,0.803-1.142,1.316-1.601c0.277-0.254,0.564-0.481,0.855-0.673
		c0.297-0.191,0.604-0.354,0.924-0.487c0.317-0.128,0.65-0.229,1.007-0.292c-1.001-2.313-2.14-4.551-3.403-6.71
		C116.413,33.371,114.555,34.786,113.313,36.161"/>
	<path clip-path="url(#SVGID_4_)" fill="#FFFFFF" d="M42.041,94.303v-4.47c0-1.004-0.637-1.346-1.219-1.346
		c-0.581,0-1.233,0.342-1.233,1.346v4.47h-1.845v-7.389h1.8v0.681c0.483-0.511,1.165-0.767,1.844-0.767
		c0.74,0,1.334,0.242,1.747,0.65c0.596,0.6,0.751,1.293,0.751,2.101v4.724H42.041z"/>
	<path clip-path="url(#SVGID_4_)" fill="#FFFFFF" d="M51.623,89.125c-0.198-0.437-0.608-0.763-1.233-0.763
		c-0.627,0-1.036,0.326-1.235,0.763c-0.114,0.272-0.155,0.471-0.173,0.797h2.815C51.779,89.596,51.737,89.397,51.623,89.125
		 M48.982,91.184c0,0.951,0.585,1.646,1.621,1.646c0.809,0,1.206-0.225,1.673-0.695l1.12,1.092
		c-0.751,0.752-1.473,1.163-2.808,1.163c-1.746,0-3.42-0.795-3.42-3.788c0-2.411,1.308-3.774,3.222-3.774
		c2.056,0,3.221,1.504,3.221,3.534v0.822H48.982z"/>
	<path clip-path="url(#SVGID_4_)" fill="#FFFFFF" d="M59.288,94.303c-1.502,0-2.142-1.061-2.142-2.111v-3.663h-0.78v-1.403h0.78
		V84.94h1.845v2.186h1.305v1.403h-1.305v3.55c0,0.423,0.199,0.666,0.64,0.666h0.665v1.558H59.288z"/>
</g>
<polygon fill="#FFFFFF" points="71.628,94.303 70.108,94.303 68.564,89.666 67.018,94.303 65.498,94.303 63.225,86.914 
	65.185,86.914 66.378,91.483 67.881,86.914 69.23,86.914 70.748,91.483 71.939,86.914 73.884,86.914 "/>
<g>
	<defs>
		<rect id="SVGID_5_" x="2" y="1.847" width="126.568" height="125.971"/>
	</defs>
	<clipPath id="SVGID_6_">
		<use xlink:href="#SVGID_5_"  overflow="visible"/>
	</clipPath>
	<path clip-path="url(#SVGID_6_)" fill="#FFFFFF" d="M80.486,88.815c-0.215-0.212-0.497-0.328-0.867-0.328
		c-0.368,0-0.639,0.116-0.849,0.328c-0.385,0.384-0.428,1.019-0.428,1.787c0,0.765,0.043,1.421,0.428,1.803
		c0.21,0.214,0.481,0.326,0.849,0.326c0.37,0,0.652-0.112,0.867-0.326c0.381-0.382,0.425-1.038,0.425-1.803
		C80.911,89.834,80.867,89.199,80.486,88.815 M81.917,93.482c-0.454,0.483-1.209,0.908-2.298,0.908
		c-1.093,0-1.829-0.425-2.285-0.908c-0.667-0.696-0.837-1.532-0.837-2.88c0-1.333,0.17-2.171,0.837-2.866
		c0.456-0.481,1.192-0.908,2.285-0.908c1.089,0,1.844,0.427,2.298,0.908c0.667,0.695,0.839,1.533,0.839,2.866
		C82.756,91.95,82.584,92.786,81.917,93.482"/>
	<path clip-path="url(#SVGID_6_)" fill="#FFFFFF" d="M89.91,88.928c-0.284-0.284-0.526-0.441-0.98-0.441
		c-0.566,0-1.193,0.427-1.193,1.364v4.453h-1.841v-7.389h1.8v0.709c0.356-0.427,1.064-0.795,1.858-0.795
		c0.726,0,1.236,0.185,1.746,0.694L89.91,88.928z"/>
</g>
<polygon fill="#FFFFFF" points="98.599,94.303 96.783,91.226 96.002,92.106 96.002,94.303 94.156,94.303 94.156,84.206 
	96.002,84.206 96.002,89.936 98.456,86.914 100.685,86.914 98.046,89.893 100.883,94.303 "/>
<g>
	<defs>
		<rect id="SVGID_7_" x="2" y="1.847" width="126.568" height="125.971"/>
	</defs>
	<clipPath id="SVGID_8_">
		<use xlink:href="#SVGID_7_"  overflow="visible"/>
	</clipPath>
	<path clip-path="url(#SVGID_8_)" fill="#DC1F26" d="M128.568,35.308c0,1.357-1.102,2.457-2.458,2.457
		c-1.356,0-2.455-1.1-2.455-2.457c0-1.381,1.099-2.462,2.492-2.462C127.466,32.846,128.568,33.964,128.568,35.308 M123.942,35.308
		c0,1.195,0.969,2.17,2.168,2.17c1.201,0,2.167-0.97,2.167-2.17c0-1.185-0.966-2.173-2.13-2.173
		C124.911,33.135,123.942,34.091,123.942,35.308 M126.311,33.971c0.574,0,0.905,0.257,0.905,0.712c0,0.326-0.162,0.54-0.504,0.657
		v0.025c0.149,0.043,0.248,0.114,0.323,0.217c0.081,0.115,0.089,0.154,0.126,0.588c0.023,0.301,0.042,0.365,0.163,0.47h-0.369
		c-0.05-0.075-0.07-0.157-0.082-0.388c-0.033-0.67-0.125-0.773-0.706-0.773h-0.631c-0.069,0-0.095,0-0.162-0.028
		c0.025,0.071,0.025,0.089,0.025,0.163v1.026h-0.313v-2.669H126.311z M125.536,34.24c-0.069,0-0.095,0-0.162-0.025
		c0.025,0.07,0.025,0.089,0.025,0.167v0.695c0,0.082,0,0.101-0.025,0.171c0.067-0.025,0.093-0.025,0.162-0.025h0.601
		c0.544,0,0.768-0.146,0.768-0.502c0-0.331-0.211-0.481-0.683-0.481H125.536z"/>
</g>
</svg>
