<?xml version="1.0" encoding="utf-8"?>
<!-- Generator: Adobe Illustrator 17.0.0, SVG Export Plug-In . SVG Version: 6.00 Build 0)  -->
<!DOCTYPE svg PUBLIC "-//W3C//DTD SVG 1.1//EN" "http://www.w3.org/Graphics/SVG/1.1/DTD/svg11.dtd">
<svg version="1.1" id="Layer_1" xmlns="http://www.w3.org/2000/svg" xmlns:xlink="http://www.w3.org/1999/xlink" x="0px" y="0px"
	 width="59.868px" height="60.667px" viewBox="0 0 59.868 60.667" enable-background="new 0 0 59.868 60.667" xml:space="preserve">
<g>
	<path fill="#010101" d="M30.107,60.215C13.506,60.215,0,46.709,0,30.107S13.506,0,30.107,0s30.108,13.506,30.108,30.107
		S46.709,60.215,30.107,60.215z M30.107,2.208c-15.384,0-27.899,12.516-27.899,27.899c0,15.384,12.516,27.9,27.899,27.9
		c15.384,0,27.9-12.516,27.9-27.9C58.007,14.723,45.492,2.208,30.107,2.208z"/>
</g>
<g>
	<path fill="#010101" d="M30.107,4.56C15.998,4.56,4.56,15.998,4.56,30.108c0,14.109,11.438,25.547,25.547,25.547
		c14.109,0,25.547-11.438,25.547-25.547C55.655,15.998,44.217,4.56,30.107,4.56z M40.256,36.845l-3.292,3.292l-6.737-6.737
		l-6.737,6.737l-3.292-3.292l6.737-6.737l-6.737-6.737l3.292-3.292l6.737,6.737l6.737-6.737l3.292,3.292l-6.737,6.737L40.256,36.845
		z"/>
</g>
</svg>
