<?xml version="1.0" ?><!DOCTYPE svg  PUBLIC '-//W3C//DTD SVG 1.1//EN'  'http://www.w3.org/Graphics/SVG/1.1/DTD/svg11.dtd'><svg height="32px" style="enable-background:new 0 0 32 32;" version="1.1" viewBox="0 0 32 32" width="32px" x="0px" xml:space="preserve" xmlns="http://www.w3.org/2000/svg" xmlns:xlink="http://www.w3.org/1999/xlink" y="0px"><g id="Layer_1"/><g id="fullscreen_x5F_exit"><g><polygon points="24.586,27.414 29.172,32 32,29.172 27.414,24.586 32,20 20,20 20,32   " style="fill:#4E4E50;"/><polygon points="0,12 12,12 12,0 7.414,4.586 2.875,0.043 0.047,2.871 4.586,7.414   " style="fill:#4E4E50;"/><polygon points="0,29.172 2.828,32 7.414,27.414 12,32 12,20 0,20 4.586,24.586   " style="fill:#4E4E50;"/><polygon points="20,12 32,12 27.414,7.414 31.961,2.871 29.133,0.043 24.586,4.586 20,0   " style="fill:#4E4E50;"/></g></g></svg>