<?xml version="1.0" encoding="utf-8"?>
<!-- Generator: Adobe Illustrator 17.0.0, SVG Export Plug-In . SVG Version: 6.00 Build 0)  -->
<!DOCTYPE svg PUBLIC "-//W3C//DTD SVG 1.1//EN" "http://www.w3.org/Graphics/SVG/1.1/DTD/svg11.dtd">
<svg version="1.1" id="Layer_1" xmlns="http://www.w3.org/2000/svg" xmlns:xlink="http://www.w3.org/1999/xlink" x="0px" y="0px"
	 width="47.958px" height="51.1px" viewBox="0 0 47.958 51.1" enable-background="new 0 0 47.958 51.1" xml:space="preserve">
<g>
	<defs>
		<circle id="SVGID_1_" cx="24.38" cy="25.87" r="15.274"/>
	</defs>
	<clipPath id="SVGID_2_">
		<use xlink:href="#SVGID_1_"  overflow="visible"/>
	</clipPath>
	<g clip-path="url(#SVGID_2_)">
		<path fill="#FFFFFF" d="M30.843,22.272v7.715c0,2.93-2.899,5.314-6.463,5.314s-6.463-2.384-6.463-5.314v-7.715h-1.475v7.715
			c0,3.743,3.561,6.789,7.938,6.789s7.938-3.045,7.938-6.789v-7.715H30.843z"/>
		<g>
			<path fill="#FFFFFF" d="M24.38,33.404c-2.678,0-4.848-2.171-4.848-4.848V17.768c0-2.678,2.171-4.848,4.848-4.848
				s4.848,2.171,4.848,4.848v10.788C29.228,31.233,27.058,33.404,24.38,33.404z"/>
		</g>
		<rect x="23.131" y="35.889" fill="#FFFFFF" width="2.499" height="5.646"/>
	</g>
</g>
<circle fill="none" stroke="#FFFFFF" stroke-width="3" stroke-miterlimit="10" cx="24.38" cy="25.87" r="22.171"/>
</svg>
