<?xml version="1.0" encoding="utf-8"?>
<!-- Generator: Adobe Illustrator 17.0.0, SVG Export Plug-In . SVG Version: 6.00 Build 0)  -->
<!DOCTYPE svg PUBLIC "-//W3C//DTD SVG 1.1//EN" "http://www.w3.org/Graphics/SVG/1.1/DTD/svg11.dtd">
<svg version="1.1" id="Layer_1" xmlns="http://www.w3.org/2000/svg" xmlns:xlink="http://www.w3.org/1999/xlink" x="0px" y="0px"
	 width="111px" height="47.375px" viewBox="0 0 111 47.375" enable-background="new 0 0 111 47.375" xml:space="preserve">
<g>
	<defs>
		<path id="SVGID_1_" d="M2.875,1.25c-1.1,0-2,0.9-2,2v41c0,1.1,0.9,2,2,2h90c1.099,0,1.691-0.845,1.314-1.878L87.561,26.2
			c-0.377-1.034-0.391-2.73-0.031-3.77l6.69-19.29c0.36-1.04-0.246-1.89-1.345-1.89H2.875z M95.875,1.25
			c1.1,0,1.739,0.861,1.421,1.914l-6.842,19.242c-0.318,1.053-0.309,2.774,0.018,3.822l6.805,18.114
			c0.329,1.048-0.302,1.908-1.402,1.908h12c1.1,0,1.73-0.86,1.402-1.908l-6.804-18.114c-0.328-1.048-0.338-2.769-0.019-3.822
			l6.842-19.242c0.319-1.053-0.321-1.914-1.421-1.914H95.875z"/>
	</defs>
	<use xlink:href="#SVGID_1_"  overflow="visible" fill="#FFFFFF"/>
	<clipPath id="SVGID_2_">
		<use xlink:href="#SVGID_1_"  overflow="visible"/>
	</clipPath>
	<use xlink:href="#SVGID_1_"  overflow="visible" fill="none" stroke="#000000" stroke-miterlimit="10"/>
</g>
</svg>
