<?xml version="1.0" encoding="utf-8"?>
<!-- Generator: Adobe Illustrator 17.0.0, SVG Export Plug-In . SVG Version: 6.00 Build 0)  -->
<!DOCTYPE svg PUBLIC "-//W3C//DTD SVG 1.1//EN" "http://www.w3.org/Graphics/SVG/1.1/DTD/svg11.dtd">
<svg version="1.1" id="Layer_1" xmlns="http://www.w3.org/2000/svg" xmlns:xlink="http://www.w3.org/1999/xlink" x="0px" y="0px"
	 width="222.5px" height="65.25px" viewBox="0 0 222.5 65.25" enable-background="new 0 0 222.5 65.25" xml:space="preserve">
<g>
	<defs>
		<polygon id="SVGID_1_" points="42.974,1.685 40.888,1.332 38.8,1.448 36.712,1.563 34.621,1.818 32.53,1.785 30.409,1.581 
			28.291,1.727 26.144,1.843 24.038,2.264 22.241,3.619 20.129,4.023 18.2,4.92 16.394,6.042 14.568,7.133 12.819,8.354 
			11.221,9.767 9.553,11.127 8.278,12.855 7.276,14.761 6.123,16.531 4.906,18.275 4.022,20.206 3.391,22.232 2.422,24.15 
			2.095,26.261 1.762,28.356 1.851,30.485 1.434,32.583 1.208,34.724 1.428,36.856 1.716,38.984 2.325,41.043 3.214,42.998 
			3.951,44.992 4.654,47.024 5.828,48.818 7.188,50.469 8.52,52.114 9.804,53.808 11.206,55.418 13.119,56.447 14.468,58.177 
			16.322,59.244 18.188,60.271 20.053,61.319 22.08,61.998 24.037,62.904 26.132,63.386 28.242,63.787 30.386,63.926 32.53,63.325 
			34.613,63.627 36.696,63.555 38.778,63.44 40.859,63.701 42.941,63.779 45.023,63.458 47.105,64.045 49.188,63.71 51.271,63.8 
			53.354,63.443 55.436,63.339 57.518,63.605 59.6,63.504 61.679,63.754 63.758,63.452 65.836,63.435 67.914,63.489 69.993,63.492 
			72.073,63.621 74.154,63.862 76.236,63.486 78.319,63.333 80.403,64.062 82.483,63.565 84.565,63.434 86.645,63.994 
			88.725,63.423 90.806,63.316 92.886,63.578 94.967,63.99 97.05,63.379 99.133,63.443 101.217,63.462 103.299,63.762 
			105.381,63.381 107.462,63.933 109.543,64.075 111.626,63.893 113.71,63.914 115.794,63.423 117.877,63.484 119.959,63.724 
			122.041,63.61 124.124,63.965 126.209,63.691 128.293,63.891 130.376,63.812 132.459,63.517 134.543,64.004 136.628,64.074 
			138.712,63.606 140.795,63.685 142.88,63.384 144.965,63.427 147.049,63.621 149.133,63.546 151.218,63.746 153.303,63.695 
			155.388,64.013 157.472,63.912 159.557,63.339 161.639,63.478 163.722,63.847 165.804,63.98 167.891,63.927 189.974,63.451 
			192.059,63.924 194.144,63.616 196.231,63.431 198.316,63.862 200.402,63.607 202.489,63.509 204.577,63.313 206.661,63.832 
			208.748,64.041 210.836,63.788 212.924,63.967 215.016,63.59 217.106,63.528 218.76,63.032 219.813,61.467 219.228,59.388 
			218.183,57.502 217.662,55.413 216.43,53.597 215.616,51.622 214.729,49.676 214.216,47.58 213.774,45.457 212.59,43.627 
			211.693,41.681 211.412,39.497 210.362,37.61 209.292,35.728 208.442,33.63 209.449,31.607 209.988,29.545 210.586,27.502 
			211.58,25.604 212.237,23.582 213.397,21.743 213.59,19.553 214.449,17.603 215.2,15.614 216.069,13.669 216.602,11.602 
			217.352,9.613 218.373,7.72 219.256,5.776 219.446,3.594 218.831,2.046 217.106,1.685 215.024,1.721 212.94,1.509 210.859,1.732 
			208.777,1.326 206.694,1.246 204.613,1.855 202.531,1.81 200.448,1.525 198.366,1.459 196.282,1.545 194.2,1.424 192.118,1.4 
			190.036,1.246 167.957,1.276 165.879,1.68 163.8,1.703 161.722,1.7 159.642,1.725 157.562,1.83 155.482,1.498 153.401,1.536 
			151.317,1.834 149.234,1.151 147.152,1.252 145.071,1.679 142.991,1.243 140.911,1.548 138.831,1.169 136.75,1.42 134.669,1.438 
			132.586,1.383 130.502,1.428 128.419,1.421 126.337,1.383 124.255,1.568 122.173,1.85 120.093,1.521 118.01,1.236 115.926,1.763 
			113.842,1.373 111.759,1.451 109.677,1.193 107.594,1.336 105.512,1.16 103.426,1.171 101.343,1.137 99.26,1.184 97.177,1.398 
			95.093,1.797 93.008,1.593 90.925,1.259 88.841,1.209 86.757,1.425 84.671,1.393 82.588,1.775 80.503,1.213 78.418,1.111 
			76.334,1.248 74.248,1.349 72.164,1.519 70.08,1.847 67.996,1.498 65.914,1.656 63.831,1.827 61.746,1.424 59.663,1.666 
			57.577,1.541 55.492,1.171 53.405,1.361 51.32,1.167 49.234,1.25 47.147,1.599 45.06,1.109 		"/>
	</defs>
	<use xlink:href="#SVGID_1_"  overflow="visible" fill="#FFFFFF"/>
	<clipPath id="SVGID_2_">
		<use xlink:href="#SVGID_1_"  overflow="visible"/>
	</clipPath>
</g>
</svg>
