<?xml version="1.0" encoding="utf-8"?>
<!-- Generator: Adobe Illustrator 17.0.0, SVG Export Plug-In . SVG Version: 6.00 Build 0)  -->
<!DOCTYPE svg PUBLIC "-//W3C//DTD SVG 1.1//EN" "http://www.w3.org/Graphics/SVG/1.1/DTD/svg11.dtd">
<svg version="1.1" id="Layer_1" xmlns="http://www.w3.org/2000/svg" xmlns:xlink="http://www.w3.org/1999/xlink" x="0px" y="0px"
	 width="222.5px" height="65.25px" viewBox="0 0 222.5 65.25" enable-background="new 0 0 222.5 65.25" xml:space="preserve">
<g>
	<defs>
		<polygon id="SVGID_1_" points="42.974,1.685 40.888,1.332 38.8,1.448 36.712,1.563 34.621,1.818 32.53,1.785 30.409,1.581 
			28.291,1.727 26.144,1.843 24.038,2.264 22.241,3.619 20.129,4.023 18.2,4.92 16.394,6.042 14.568,7.133 12.819,8.354 
			11.221,9.767 9.553,11.127 8.278,12.855 7.276,14.761 6.123,16.531 4.906,18.275 4.022,20.206 3.391,22.232 2.422,24.15 
			2.095,26.261 1.762,28.356 1.851,30.485 1.434,32.583 1.208,34.724 1.428,36.856 1.716,38.984 2.325,41.043 3.214,42.998 
			3.951,44.992 4.654,47.024 5.828,48.818 7.188,50.469 8.52,52.114 9.804,53.808 11.206,55.418 13.119,56.447 14.468,58.177 
			16.322,59.244 18.188,60.271 20.053,61.319 22.08,61.998 24.037,62.904 26.132,63.386 28.242,63.787 30.386,63.926 32.53,63.325 
			34.613,63.627 36.696,63.555 38.778,63.44 40.859,63.701 42.941,63.779 45.023,63.458 47.105,64.045 49.188,63.71 51.271,63.8 
			53.354,63.443 55.436,63.339 57.518,63.605 59.6,63.504 61.679,63.754 63.758,63.452 65.836,63.435 67.914,63.489 69.993,63.492 
			72.073,63.621 74.154,63.862 76.236,63.486 78.319,63.333 80.403,64.062 82.483,63.565 84.565,63.434 86.645,63.994 
			88.725,63.423 90.806,63.316 92.886,63.578 94.967,63.99 97.05,63.379 99.133,63.443 101.217,63.462 103.299,63.762 
			105.381,63.381 107.462,63.933 109.543,64.075 111.626,63.893 113.71,63.914 115.794,63.423 117.877,63.484 119.959,63.724 
			122.041,63.61 124.124,63.965 126.209,63.691 128.293,63.891 130.376,63.812 132.459,63.517 134.543,64.004 136.628,64.074 
			138.712,63.606 140.795,63.685 142.88,63.384 144.965,63.427 147.049,63.621 149.133,63.546 151.218,63.746 153.303,63.695 
			155.388,64.013 157.472,63.912 159.557,63.339 161.639,63.478 163.722,63.847 165.804,63.98 167.891,63.927 189.974,63.451 
			192.059,63.924 194.144,63.616 196.231,63.431 198.316,63.862 200.402,63.607 202.489,63.509 204.577,63.313 206.661,63.832 
			208.748,64.041 210.836,63.788 212.924,63.967 215.016,63.59 217.106,63.528 218.76,63.032 219.813,61.467 219.228,59.388 
			218.183,57.502 217.662,55.413 216.43,53.597 215.616,51.622 214.729,49.676 214.216,47.58 213.774,45.457 212.59,43.627 
			211.693,41.681 211.412,39.497 210.362,37.61 209.292,35.728 208.442,33.63 209.449,31.607 209.988,29.545 210.586,27.502 
			211.58,25.604 212.237,23.582 213.397,21.743 213.59,19.553 214.449,17.603 215.2,15.614 216.069,13.669 216.602,11.602 
			217.352,9.613 218.373,7.72 219.256,5.776 219.446,3.594 218.831,2.046 217.106,1.685 215.024,1.721 212.94,1.509 210.859,1.732 
			208.777,1.326 206.694,1.246 204.613,1.855 202.531,1.81 200.448,1.525 198.366,1.459 196.282,1.545 194.2,1.424 192.118,1.4 
			190.036,1.246 167.957,1.276 165.879,1.68 163.8,1.703 161.722,1.7 159.642,1.725 157.562,1.83 155.482,1.498 153.401,1.536 
			151.317,1.834 149.234,1.151 147.152,1.252 145.071,1.679 142.991,1.243 140.911,1.548 138.831,1.169 136.75,1.42 134.669,1.438 
			132.586,1.383 130.502,1.428 128.419,1.421 126.337,1.383 124.255,1.568 122.173,1.85 120.093,1.521 118.01,1.236 115.926,1.763 
			113.842,1.373 111.759,1.451 109.677,1.193 107.594,1.336 105.512,1.16 103.426,1.171 101.343,1.137 99.26,1.184 97.177,1.398 
			95.093,1.797 93.008,1.593 90.925,1.259 88.841,1.209 86.757,1.425 84.671,1.393 82.588,1.775 80.503,1.213 78.418,1.111 
			76.334,1.248 74.248,1.349 72.164,1.519 70.08,1.847 67.996,1.498 65.914,1.656 63.831,1.827 61.746,1.424 59.663,1.666 
			57.577,1.541 55.492,1.171 53.405,1.361 51.32,1.167 49.234,1.25 47.147,1.599 45.06,1.109 		"/>
	</defs>
	<use xlink:href="#SVGID_1_"  overflow="visible" fill="#FFFFFF"/>
	<clipPath id="SVGID_2_">
		<use xlink:href="#SVGID_1_"  overflow="visible"/>
	</clipPath>
</g>
<g>
	<defs>
		<path id="SVGID_3_" d="M25.599,22.207l0.384,2.249l0.346,2.254l0.381,2.246l0.413,2.24l0.093,2.14L27.1,35.478l-0.351,2.074
			l-0.399,2.065l-0.313,2.077l-0.372,2.065l1.423,0.915l1.804-1.162l1.841-1.107l1.759-1.224l1.775-1.202l1.797-1.164l1.845-1.09
			l1.759-1.215l1.797-1.164l1.805-1.15l-0.003-2.432l-1.835-1.116l-1.802-1.166l-1.741-1.255l-1.851-1.084l-1.787-1.18l-1.792-1.17
			l-1.76-1.211l-1.779-1.193l-1.811-1.142L25.599,22.207z M30.72,53.431l-1.042-0.055l-1.037-0.275l-0.355-0.093l-0.36-0.07
			l-1.568-0.296l-0.846-0.253l-1.273-0.585l-1.883-0.867l-0.778-0.365l-0.695-0.563l-0.129-0.106l-0.132-0.1l-1.683-1.275
			l-0.032-0.024l-0.033-0.024L17.9,47.752l-0.685-0.733l-1.057-1.229l-1.012-1.322l-0.901-1.259l-0.675-1.127l-0.374-0.75
			l-0.351-1.195l-0.056-0.191l-0.064-0.187l-0.514-1.528l-0.296-1.283l-0.278-1.653L11.42,33.74l-0.053-0.886l0.137-1.285
			l0.039-0.365l0.012-0.367l0.052-1.571l0.12-0.838l0.315-1.074l0.514-1.449l0.611-1.44l0.81-1.679l0.103-0.21l0.092-0.215
			l0.321-0.752l0.5-0.642l0.198-0.253l0.181-0.266l0.763-1.118l0.614-0.656l1.24-1.113l0.097-0.086l0.094-0.09l1.515-1.427
			l0.443-0.413l0.583-0.286l0.534-0.263l0.5-0.323l0.949-0.616l1.036-0.412l1.563-0.616l1.538-0.468l1.381-0.389l1.514-0.246
			l0.119-0.019l0.119-0.022l1.114-0.208l0.758,0.007l1.742,0.149l0.212,0.018l0.215,0.009l1.408,0.061l1.203,0.222l1.462,0.327
			l1.351,0.427l1.394,0.521l0.836,0.385l1.069,0.727l0.116,0.079l0.12,0.076l1.737,1.11l0.733,0.481l0.643,0.679l0.319,0.34
			l0.35,0.309l1.303,1.147l0.562,0.578l0.492,0.738l0.913,1.567l0.207,0.357l0.237,0.338l0.808,1.16l0.308,0.61l0.445,1.327
			l0.033,0.098l0.036,0.097l0.453,1.268l0.255,1.323l0.015,0.076l0.016,0.074l0.283,1.359l0.083,1.385l0.006,0.1l0.008,0.101
			l0.126,1.564l-0.039,1.325l-0.083,1.049l-0.3,1.211l-0.524,2.031l-0.234,0.917l-0.441,0.842l-0.299,0.573l-0.224,0.605
			l-0.494,1.336l-0.488,0.911l-0.584,0.908l-0.833,0.99l-1.01,1.117l-1.23,1.147l-0.188,0.176l-0.18,0.184l-1.031,1.062l-0.288,0.23
			l-0.919,0.449l-0.624,0.305l-0.575,0.385l-1.133,0.76l-0.808,0.382l-1.552,0.563l-0.101,0.037l-0.101,0.038l-1.193,0.464
			l-0.851,0.174l-1.603,0.197l-1.79,0.185l-1.353,0.08L30.72,53.431z M28.115,1.928l-2.089,0.34l-2.035,0.574l-2.022,0.616
			l-1.965,0.773l-1.97,0.785L16.252,6.17l-1.919,0.944L12.77,8.567l-1.539,1.452l-1.579,1.414l-1.448,1.552l-1.196,1.754
			l-1.311,1.68l-0.838,1.96L3.94,20.283l-0.827,1.948L2.404,24.23l-0.6,2.042l-0.301,2.105l-0.071,2.126l-0.224,2.114l0.125,2.121
			l0.293,2.1l0.353,2.087l0.474,2.064l0.677,2.007l0.601,2.044l0.946,1.906l1.093,1.823l1.234,1.726l1.287,1.679l1.38,1.606
			l1.448,1.55l1.702,1.268l1.683,1.277l1.654,1.341l1.924,0.902l1.921,0.886l1.926,0.886l2.032,0.607l2.081,0.392l2.055,0.547
			l2.12,0.111l2.117,0.099l2.114-0.126l2.104-0.217l2.105-0.259l2.082-0.428l1.984-0.768l1.992-0.724l1.919-0.907l1.764-1.181
			l1.92-0.938l1.665-1.327l1.481-1.527l1.55-1.444l1.422-1.573l1.371-1.629l1.149-1.791l1.005-1.874l0.739-1.995l0.987-1.888
			l0.525-2.061l0.531-2.053l0.511-2.068l0.167-2.124l0.064-2.127l-0.171-2.12l-0.127-2.122l-0.434-2.08l-0.403-2.089l-0.718-2.002
			l-0.677-2.019l-0.96-1.901l-1.217-1.746l-1.068-1.833l-1.181-1.772l-1.485-1.525l-1.592-1.403l-1.461-1.549L50.21,7.292
			l-1.782-1.14l-1.761-1.196l-1.931-0.89l-1.99-0.745L40.722,2.68l-2.07-0.461l-2.086-0.386l-2.12-0.091l-2.112-0.179l-2.127-0.026
			L28.115,1.928z"/>
	</defs>
	<use xlink:href="#SVGID_3_"  overflow="visible"/>
	<clipPath id="SVGID_4_">
		<use xlink:href="#SVGID_3_"  overflow="visible"/>
	</clipPath>
</g>
<g>
	<polygon fill="none" stroke="#FFFFFF" stroke-miterlimit="10" points="28.115,1.928 26.026,2.268 23.991,2.842 21.97,3.458 
		20.004,4.231 18.034,5.016 16.252,6.17 14.333,7.114 12.77,8.567 11.231,10.019 9.652,11.433 8.204,12.985 7.008,14.739 
		5.698,16.419 4.859,18.379 3.94,20.283 3.114,22.231 2.405,24.23 1.804,26.272 1.503,28.377 1.433,30.502 1.209,32.617 
		1.334,34.738 1.626,36.838 1.979,38.925 2.453,40.989 3.13,42.996 3.731,45.04 4.677,46.946 5.771,48.769 7.005,50.495 
		8.292,52.174 9.671,53.78 11.119,55.33 12.821,56.599 14.504,57.875 16.158,59.216 18.083,60.118 20.003,61.004 21.929,61.89 
		23.961,62.497 26.042,62.89 28.097,63.436 30.217,63.547 32.334,63.646 34.448,63.52 36.553,63.303 38.658,63.044 40.739,62.616 
		42.723,61.848 44.715,61.124 46.634,60.217 48.398,59.036 50.319,58.098 51.983,56.771 53.464,55.244 55.014,53.8 56.436,52.227 
		57.807,50.598 58.956,48.807 59.961,46.933 60.7,44.938 61.688,43.05 62.212,40.989 62.743,38.936 63.255,36.868 63.421,34.744 
		63.485,32.617 63.315,30.497 63.187,28.375 62.753,26.296 62.35,24.206 61.633,22.204 60.955,20.185 59.996,18.284 58.778,16.538 
		57.711,14.705 56.53,12.933 55.044,11.408 53.453,10.005 51.991,8.456 50.211,7.292 48.428,6.152 46.668,4.956 44.736,4.066 
		42.746,3.321 40.723,2.68 38.652,2.219 36.566,1.833 34.446,1.742 32.334,1.562 30.207,1.537 	"/>
	<path fill="none" stroke="#FFFFFF" stroke-miterlimit="10" d="M25.599,22.207l0.385,2.249l0.345,2.254l0.381,2.246l0.413,2.24
		l0.094,2.14l-0.116,2.142l-0.351,2.074l-0.4,2.065l-0.312,2.077l-0.373,2.065l1.423,0.915l1.805-1.161l1.84-1.107l1.76-1.225
		l1.774-1.202l1.798-1.164l1.845-1.089l1.758-1.215l1.798-1.165l1.804-1.15l-0.003-2.432l-1.835-1.116l-1.802-1.166l-1.74-1.255
		l-1.851-1.084l-1.788-1.18l-1.792-1.17l-1.76-1.211L28.92,22.39l-1.81-1.143L25.599,22.207z M30.72,53.431l-1.042-0.054
		l-1.037-0.276l-0.355-0.093l-0.36-0.07l-1.568-0.296l-0.846-0.253l-1.272-0.585l-1.883-0.867l-0.779-0.365l-0.695-0.563
		l-0.128-0.106l-0.133-0.099l-1.683-1.276l-0.032-0.024l-0.032-0.024L17.9,47.752l-0.685-0.733l-1.057-1.229l-1.012-1.322
		l-0.901-1.259l-0.675-1.127l-0.373-0.75l-0.351-1.194l-0.056-0.192l-0.064-0.187l-0.515-1.528l-0.295-1.283l-0.279-1.653
		L11.42,33.74l-0.052-0.886l0.137-1.285l0.038-0.365l0.012-0.367l0.052-1.571l0.12-0.837l0.316-1.075l0.514-1.449l0.611-1.44
		l0.81-1.679l0.102-0.21l0.092-0.215l0.321-0.752l0.501-0.641l0.198-0.254l0.181-0.266l0.762-1.118l0.614-0.656l1.24-1.113
		l0.097-0.085l0.095-0.09l1.514-1.428l0.443-0.413l0.583-0.286l0.534-0.263l0.501-0.323l0.948-0.616l1.036-0.412l1.563-0.616
		l1.538-0.468l1.381-0.389l1.514-0.246l0.12-0.019l0.118-0.022l1.115-0.208l0.757,0.007l1.742,0.149l0.212,0.018l0.215,0.009
		l1.408,0.061l1.203,0.222l1.462,0.327l1.352,0.427l1.394,0.521l0.835,0.386l1.069,0.726l0.116,0.079l0.12,0.077l1.737,1.109
		l0.733,0.481l0.643,0.679l0.32,0.341l0.35,0.308l1.302,1.147l0.563,0.578l0.491,0.738l0.913,1.567l0.207,0.357l0.237,0.338
		l0.808,1.16l0.308,0.61l0.446,1.327l0.032,0.098l0.036,0.097l0.454,1.269l0.254,1.322l0.016,0.076l0.015,0.074l0.283,1.359
		l0.083,1.385l0.006,0.1l0.009,0.101l0.126,1.564l-0.04,1.325l-0.083,1.049l-0.3,1.212l-0.523,2.03l-0.234,0.917l-0.441,0.842
		l-0.3,0.573l-0.223,0.606l-0.494,1.335l-0.489,0.911l-0.583,0.908l-0.834,0.99l-1.009,1.117l-1.231,1.147l-0.188,0.176l-0.18,0.184
		l-1.03,1.062l-0.288,0.23l-0.92,0.449l-0.624,0.305l-0.575,0.385l-1.132,0.76l-0.808,0.382l-1.553,0.563l-0.101,0.037l-0.1,0.039
		l-1.194,0.463l-0.85,0.174l-1.604,0.197l-1.789,0.185l-1.354,0.08L30.72,53.431z M28.115,1.928l-2.089,0.34l-2.035,0.574
		L21.97,3.458l-1.966,0.773l-1.97,0.785L16.252,6.17l-1.919,0.944L12.77,8.567l-1.539,1.452l-1.579,1.414l-1.448,1.552l-1.196,1.754
		l-1.31,1.68l-0.839,1.96L3.94,20.283l-0.826,1.948L2.405,24.23l-0.601,2.042l-0.301,2.105l-0.07,2.126l-0.224,2.114l0.125,2.121
		l0.292,2.1l0.353,2.087l0.474,2.064l0.677,2.007l0.601,2.044l0.946,1.906l1.094,1.823l1.234,1.726l1.287,1.679l1.379,1.606
		l1.448,1.55l1.702,1.269l1.683,1.276l1.654,1.341l1.925,0.902l1.92,0.886l1.926,0.886l2.032,0.607l2.081,0.393l2.055,0.546
		l2.12,0.111l2.117,0.099l2.114-0.126l2.105-0.217l2.105-0.259l2.081-0.428l1.984-0.768l1.992-0.724l1.919-0.907l1.764-1.181
		l1.921-0.938l1.664-1.327l1.481-1.527l1.55-1.444l1.422-1.573l1.371-1.629l1.149-1.791l1.005-1.874l0.739-1.995l0.988-1.888
		l0.524-2.061l0.531-2.053l0.512-2.068l0.166-2.124l0.064-2.127l-0.17-2.12l-0.128-2.122l-0.434-2.079l-0.403-2.09l-0.717-2.002
		l-0.678-2.019l-0.959-1.901l-1.218-1.746l-1.067-1.833l-1.181-1.772l-1.486-1.525l-1.591-1.403l-1.462-1.549L50.21,7.292
		l-1.782-1.14l-1.76-1.196l-1.932-0.89l-1.99-0.745L40.722,2.68l-2.07-0.461l-2.086-0.386l-2.12-0.091l-2.112-0.179l-2.127-0.026
		L28.115,1.928z"/>
</g>
</svg>
